<svg width="64" height="65" viewBox="0 0 64 65" fill="none" xmlns="http://www.w3.org/2000/svg">
<path opacity="0.2" d="M32 64.5C49.6731 64.5 64 50.1731 64 32.5C64 14.8269 49.6731 0.5 32 0.5C14.3269 0.5 0 14.8269 0 32.5C0 50.1731 14.3269 64.5 32 64.5Z" fill="#BB1B21"/>
<path fill-rule="evenodd" clip-rule="evenodd" d="M29.2881 11.7839C30.2018 11.3741 30.994 10.6829 31.946 10.3794C32.2003 11.8371 32.0383 13.3214 32.0811 14.7902C32.063 16.9857 32.1463 19.1833 32.027 21.3743C30.4359 22.2029 28.9123 23.1555 27.3571 24.0483C25.676 24.9943 23.9521 25.8716 22.3497 26.946C22.5117 27.0834 22.6805 27.2163 22.8538 27.3404C22.7323 27.3736 22.487 27.4401 22.3654 27.4733C22.1111 28.1556 22.3069 28.9244 22.2484 29.6377C22.1741 32.4313 22.3339 35.2316 22.1539 38.023C19.8943 39.1373 17.7586 40.4843 15.5508 41.6983C14.5155 42.3474 13.397 42.8636 12.3842 43.5504L12.382 43.5526C12.4067 36.1643 12.346 28.7604 12.4158 21.381C18.0331 18.1731 23.673 14.9985 29.2881 11.7839Z" fill="#D11D23"/>
<path fill-rule="evenodd" clip-rule="evenodd" d="M41.4816 26.8242C41.6391 27.0391 41.5333 27.3714 41.5761 27.6262C41.5581 31.08 41.5356 34.536 41.6054 37.992C39.249 39.6048 36.6564 40.8498 34.1966 42.3031C33.4156 42.7152 32.7067 43.2757 31.8695 43.5725C31.7705 43.5349 31.5724 43.4573 31.4734 43.4174C31.7592 43.3598 31.8852 43.1937 31.8537 42.9146C31.9167 39.4475 31.8875 35.9782 31.8942 32.5089C33.114 31.769 34.3766 31.1021 35.6234 30.4109C37.3226 29.4184 38.9992 28.3927 40.7389 27.4733C41.0382 27.3227 41.27 27.0768 41.4816 26.8242Z" fill="#D11D23"/>
<path fill-rule="evenodd" clip-rule="evenodd" d="M31.946 10.3794C32.9025 10.7339 33.6857 11.4383 34.6332 11.8172C40.2213 15.0516 45.8567 18.2041 51.4583 21.3987C51.5528 22.4067 51.4966 23.4369 51.4898 24.4493C51.3705 24.8303 51.3458 25.2313 51.3548 25.6279C51.3458 31.3236 51.3863 37.0194 51.3773 42.7129C51.3548 42.8857 51.3098 43.2313 51.2873 43.4019C48.0262 41.6628 44.8777 39.7133 41.6054 37.9919C41.5356 34.5359 41.5581 31.0799 41.5761 27.6262C41.5334 27.3714 41.6392 27.0391 41.4816 26.8242C39.895 26.0532 38.4389 25.0519 36.8612 24.2654C35.2814 23.2508 33.5529 22.471 32.0271 21.3743C32.1463 19.1833 32.0631 16.9857 32.0811 14.7902C32.0383 13.3214 32.2004 11.8371 31.946 10.3794Z" fill="#BB1B21"/>
<path fill-rule="evenodd" clip-rule="evenodd" d="M22.3655 27.4733C22.487 27.44 22.7323 27.3736 22.8539 27.3403C24.7893 28.3971 26.6753 29.5358 28.5837 30.6346C29.7383 31.1707 30.7915 31.8841 31.8943 32.5088C31.8876 35.9781 31.9168 39.4474 31.8538 42.9145C31.8853 43.1936 31.7593 43.3598 31.4735 43.4174C28.4015 41.5609 25.2102 39.9038 22.1539 38.0229C22.334 35.2315 22.1742 32.4313 22.2485 29.6377C22.307 28.9243 22.1112 28.1556 22.3655 27.4733Z" fill="#BB1B21"/>
<path fill-rule="evenodd" clip-rule="evenodd" d="M27.3572 24.0485C28.9123 23.1557 30.436 22.2031 32.0271 21.3745C33.553 22.4711 35.2814 23.2509 36.8613 24.2656C38.4389 25.0521 39.895 26.0534 41.4817 26.8244C41.2701 27.0769 41.0383 27.3228 40.739 27.4735C38.9993 28.3929 37.3226 29.4186 35.6235 30.4111C34.3767 31.1023 33.1141 31.7691 31.8943 32.509C30.7915 31.8843 29.7383 31.1709 28.5838 30.6348C26.6753 29.536 24.7893 28.3973 22.8539 27.3405C22.6806 27.2165 22.5118 27.0836 22.3497 26.9462C23.9521 25.8717 25.676 24.9945 27.3572 24.0485Z" fill="#ED4340"/>
<path fill-rule="evenodd" clip-rule="evenodd" d="M51.3548 25.6283C51.3458 25.2317 51.3705 24.8308 51.4898 24.4497C51.4943 30.7569 51.5033 37.0663 51.5011 43.378C51.3953 43.646 51.1252 43.7324 50.9002 43.8742C44.6639 47.4764 38.3759 50.9745 32.1351 54.5745C31.0796 54.5103 30.2874 53.5466 29.2859 53.2143C23.6843 49.9444 17.9724 46.8295 12.3843 43.5508C13.397 42.864 14.5155 42.3478 15.5508 41.6987C17.7586 40.4847 19.8944 39.1377 22.1539 38.0234C25.2102 39.9042 28.4014 41.5613 31.4734 43.4178C31.5725 43.4577 31.7705 43.5352 31.8695 43.5729C32.7067 43.276 33.4157 42.7156 34.1966 42.3035C36.6565 40.8502 39.2491 39.6052 41.6054 37.9924C44.8777 39.7137 48.0262 41.6632 51.2873 43.4023C51.3098 43.2317 51.3548 42.8861 51.3773 42.7133C51.3863 37.0198 51.3458 31.324 51.3548 25.6283Z" fill="#ED4340"/>
</svg>
