<svg width="219" height="55" viewBox="0 0 219 55" fill="none" xmlns="http://www.w3.org/2000/svg">
<rect x="48.2162" y="3" width="9" height="3" fill="#00FFA3"/>
<rect x="54.2162" width="9" height="3" transform="rotate(90 54.2162 0)" fill="#00FFA3"/>
<path d="M63.9338 54.2896H58.2822C57.1802 53.1934 56.5585 52.575 55.4564 51.4788V45.8572C56.5585 44.761 57.1802 44.1426 58.2822 43.0464H63.9338C65.0359 44.1426 65.6576 44.761 66.7597 45.8572V51.4788C65.6576 52.575 65.0359 53.1934 63.9338 54.2896Z" fill="white"/>
<path d="M92.3509 2.28955L71.4399 54.2896H80.2706L81.6835 50.776H113.121L114.533 54.2896H123.364L102.453 2.28955H92.3509Z" fill="white"/>
<path d="M38.5016 2.28955C29.7946 2.28955 16.2484 2.28955 16.2484 2.28955H0V54.2896H16.2484H38.5016L49.0984 43.749V12.8301L38.5016 2.28955Z" fill="white"/>
<path d="M164.956 2.28955H139.171H131.047V54.2896H139.171L147.648 43.0463H164.956L172.021 36.0193V9.31658L164.956 2.28955Z" fill="white"/>
<path d="M211.935 2.28955H186.15H178.026V54.2896H186.15L194.627 43.0463H211.935L219 36.0193V9.31658L211.935 2.28955Z" fill="white"/>
</svg>
