<svg width="242" height="45" viewBox="0 0 242 45" fill="none" xmlns="http://www.w3.org/2000/svg">
<path d="M30.7287 0.257324H238.15C239.723 0.257324 241 1.48846 241 3.00539V39.6159C241 41.1329 239.723 42.364 238.15 42.364H147.081C146.556 42.364 146.043 42.2239 145.599 41.9628L142.689 38.6789C142.242 38.415 141.729 38.2776 141.207 38.2776H12.9076C12.2978 38.2776 11.7049 38.0908 11.2147 37.7418L1.1571 30.5831C0.43035 30.0637 0 29.2448 0 28.3709V10.0404C0 8.5235 1.2768 7.29237 2.85 7.29237H19.7277C20.4231 7.29237 21.0928 7.04779 21.6144 6.60535L27.8274 1.31533C28.6283 0.633809 29.6599 0.257324 30.7287 0.257324Z" fill="#1B90EE"/>
<path d="M118 0.257324H239.15C240.723 0.257324 242 1.48846 242 3.00539V41.6159C242 43.1329 240.723 44.364 239.15 44.364H138.081C137.557 44.364 137.044 44.2239 136.599 43.9628L133.689 38.6789C133.242 38.415 132.729 38.2776 132.207 38.2776H118L118 0.257324Z" fill="#030092"/>
<path d="M42.702 18.5437V16.9417H51.432V18.5437H48.102V29.4517H46.05V18.5437H42.702ZM64.8142 19.5337H66.8302L63.7522 29.4517H61.5922L59.5942 22.1257L57.5962 29.4517H55.4362L52.3402 19.5337H54.4282L56.4982 27.5077L58.6042 19.5337H60.7462L62.7622 27.4717L64.8142 19.5337ZM70.7037 16.9057C70.7037 17.2777 70.5777 17.5897 70.3257 17.8417C70.0737 18.0937 69.7617 18.2197 69.3897 18.2197C69.0297 18.2197 68.7237 18.0937 68.4717 17.8417C68.2197 17.5897 68.0937 17.2777 68.0937 16.9057C68.0937 16.5337 68.2197 16.2217 68.4717 15.9697C68.7237 15.7177 69.0297 15.5917 69.3897 15.5917C69.7617 15.5917 70.0737 15.7177 70.3257 15.9697C70.5777 16.2217 70.7037 16.5337 70.7037 16.9057ZM68.3637 29.4517V19.5337H70.4157V29.4517H68.3637ZM77.9158 21.2077H75.5038V26.6977C75.5038 27.0697 75.5878 27.3397 75.7558 27.5077C75.9358 27.6637 76.2358 27.7417 76.6558 27.7417H77.9158V29.4517H76.2958C74.3878 29.4517 73.4338 28.5337 73.4338 26.6977V21.2077H72.2638V19.5337H73.4338V17.0677H75.5038V19.5337H77.9158V21.2077ZM84.613 21.2077H82.201V26.6977C82.201 27.0697 82.285 27.3397 82.453 27.5077C82.633 27.6637 82.933 27.7417 83.353 27.7417H84.613V29.4517H82.993C81.085 29.4517 80.131 28.5337 80.131 26.6977V21.2077H78.961V19.5337H80.131V17.0677H82.201V19.5337H84.613V21.2077ZM90.6803 29.6137C89.2403 29.6137 88.0703 29.1457 87.1703 28.2097C86.2703 27.2737 85.8203 26.0317 85.8203 24.4837C85.8203 22.9357 86.2763 21.6997 87.1883 20.7757C88.1003 19.8397 89.2763 19.3717 90.7163 19.3717C92.1683 19.3717 93.3443 19.8217 94.2443 20.7217C95.1443 21.6097 95.5943 22.7737 95.5943 24.2137C95.5943 24.5617 95.5703 24.8857 95.5223 25.1857H87.9263C87.9743 26.0137 88.2503 26.6737 88.7543 27.1657C89.2703 27.6457 89.9123 27.8857 90.6803 27.8857C91.7963 27.8857 92.5823 27.4237 93.0383 26.4997H95.2523C94.9523 27.4117 94.4063 28.1617 93.6143 28.7497C92.8223 29.3257 91.8443 29.6137 90.6803 29.6137ZM93.4523 23.7817C93.4403 22.9657 93.1703 22.3177 92.6423 21.8377C92.1143 21.3457 91.4723 21.0997 90.7163 21.0997C89.9603 21.0997 89.3243 21.3457 88.8083 21.8377C88.3043 22.3177 88.0163 22.9657 87.9443 23.7817H93.4523ZM99.6657 19.5337V21.2617C100.302 20.0017 101.292 19.3717 102.636 19.3717V21.4957H102.114C101.31 21.4957 100.698 21.6997 100.278 22.1077C99.8697 22.5157 99.6657 23.2237 99.6657 24.2317V29.4517H97.6137V19.5337H99.6657Z" fill="white"/>
<path d="M31.8628 17.6698V17.1371C32.6991 16.5156 33.4425 15.8053 34 14.9174C33.2566 15.2726 32.4204 15.4501 31.4911 15.5389C32.4204 15.0062 33.0708 14.2071 33.3496 13.1417C32.5133 13.5856 31.5841 13.9408 30.6549 14.1183C29.9115 13.2305 28.7965 12.6978 27.4956 12.6978C25.0796 12.6978 23.2212 14.5623 23.2212 16.9595C23.2212 17.3146 23.2212 17.6698 23.3142 17.9362C19.7832 17.8474 16.6239 16.0716 14.4867 13.408C14.115 14.0296 13.9292 14.8286 13.9292 15.6277C13.9292 17.1371 14.6726 18.4689 15.8805 19.268C15.1372 19.268 14.4867 19.0904 13.8363 18.7352V18.824C13.8363 20.9549 15.323 22.7306 17.2743 23.1746C16.9956 23.1746 16.6239 23.2633 16.1593 23.2633C15.8805 23.2633 15.6018 23.2633 15.323 23.1746C15.8805 24.9503 17.4602 26.1933 19.3186 26.1933C17.9248 27.3475 16.0664 28.0578 14.0221 28.0578C13.6504 28.0578 13.3717 28.0578 13 27.969C14.8584 29.212 17.1814 29.9223 19.5973 29.9223C27.4956 30.0111 31.8628 23.4409 31.8628 17.6698Z" fill="white"/>
<path d="M132.702 18.5437V16.9417H141.432V18.5437H138.102V29.4517H136.05V18.5437H132.702ZM154.814 19.5337H156.83L153.752 29.4517H151.592L149.594 22.1257L147.596 29.4517H145.436L142.34 19.5337H144.428L146.498 27.5077L148.604 19.5337H150.746L152.762 27.4717L154.814 19.5337ZM162.54 29.6137C161.1 29.6137 159.93 29.1457 159.03 28.2097C158.13 27.2737 157.68 26.0317 157.68 24.4837C157.68 22.9357 158.136 21.6997 159.048 20.7757C159.96 19.8397 161.136 19.3717 162.576 19.3717C164.028 19.3717 165.204 19.8217 166.104 20.7217C167.004 21.6097 167.454 22.7737 167.454 24.2137C167.454 24.5617 167.43 24.8857 167.382 25.1857H159.786C159.834 26.0137 160.11 26.6737 160.614 27.1657C161.13 27.6457 161.772 27.8857 162.54 27.8857C163.656 27.8857 164.442 27.4237 164.898 26.4997H167.112C166.812 27.4117 166.266 28.1617 165.474 28.7497C164.682 29.3257 163.704 29.6137 162.54 29.6137ZM165.312 23.7817C165.3 22.9657 165.03 22.3177 164.502 21.8377C163.974 21.3457 163.332 21.0997 162.576 21.0997C161.82 21.0997 161.184 21.3457 160.668 21.8377C160.164 22.3177 159.876 22.9657 159.804 23.7817H165.312ZM173.649 29.6137C172.209 29.6137 171.039 29.1457 170.139 28.2097C169.239 27.2737 168.789 26.0317 168.789 24.4837C168.789 22.9357 169.245 21.6997 170.157 20.7757C171.069 19.8397 172.245 19.3717 173.685 19.3717C175.137 19.3717 176.313 19.8217 177.213 20.7217C178.113 21.6097 178.563 22.7737 178.563 24.2137C178.563 24.5617 178.539 24.8857 178.491 25.1857H170.895C170.943 26.0137 171.219 26.6737 171.723 27.1657C172.239 27.6457 172.881 27.8857 173.649 27.8857C174.765 27.8857 175.551 27.4237 176.007 26.4997H178.221C177.921 27.4117 177.375 28.1617 176.583 28.7497C175.791 29.3257 174.813 29.6137 173.649 29.6137ZM176.421 23.7817C176.409 22.9657 176.139 22.3177 175.611 21.8377C175.083 21.3457 174.441 21.0997 173.685 21.0997C172.929 21.0997 172.293 21.3457 171.777 21.8377C171.273 22.3177 170.985 22.9657 170.913 23.7817H176.421ZM185.388 21.2077H182.976V26.6977C182.976 27.0697 183.06 27.3397 183.228 27.5077C183.408 27.6637 183.708 27.7417 184.128 27.7417H185.388V29.4517H183.768C181.86 29.4517 180.906 28.5337 180.906 26.6977V21.2077H179.736V19.5337H180.906V17.0677H182.976V19.5337H185.388V21.2077ZM192.028 18.5437V16.9417H200.758V18.5437H197.428V29.4517H195.376V18.5437H192.028ZM204.888 16.1317V21.0997C205.548 19.9477 206.604 19.3717 208.056 19.3717C209.172 19.3717 210.09 19.7437 210.81 20.4877C211.542 21.2317 211.908 22.2697 211.908 23.6017V29.4517H209.874V23.9077C209.874 23.0197 209.652 22.3417 209.208 21.8737C208.764 21.3937 208.158 21.1537 207.39 21.1537C206.622 21.1537 206.01 21.3937 205.554 21.8737C205.11 22.3417 204.888 23.0197 204.888 23.9077V29.4517H202.836V16.1317H204.888ZM216.866 16.9057C216.866 17.2777 216.74 17.5897 216.488 17.8417C216.236 18.0937 215.924 18.2197 215.552 18.2197C215.192 18.2197 214.886 18.0937 214.634 17.8417C214.382 17.5897 214.256 17.2777 214.256 16.9057C214.256 16.5337 214.382 16.2217 214.634 15.9697C214.886 15.7177 215.192 15.5917 215.552 15.5917C215.924 15.5917 216.236 15.7177 216.488 15.9697C216.74 16.2217 216.866 16.5337 216.866 16.9057ZM214.526 29.4517V19.5337H216.578V29.4517H214.526ZM218.822 22.3777C218.822 21.5377 219.176 20.8297 219.884 20.2537C220.592 19.6657 221.522 19.3717 222.674 19.3717C223.826 19.3717 224.738 19.6597 225.41 20.2357C226.094 20.7997 226.46 21.5737 226.508 22.5577H224.402C224.366 22.0657 224.192 21.6817 223.88 21.4057C223.58 21.1297 223.154 20.9917 222.602 20.9917C222.05 20.9917 221.618 21.1177 221.306 21.3697C220.994 21.6097 220.838 21.9337 220.838 22.3417C220.838 22.7377 221.036 23.0497 221.432 23.2777C221.828 23.5057 222.308 23.6737 222.872 23.7817C223.448 23.8897 224.018 24.0217 224.582 24.1777C225.158 24.3337 225.644 24.6217 226.04 25.0417C226.436 25.4497 226.634 26.0017 226.634 26.6977C226.634 27.5617 226.268 28.2637 225.536 28.8037C224.816 29.3437 223.886 29.6137 222.746 29.6137C221.606 29.6137 220.682 29.3377 219.974 28.7857C219.266 28.2337 218.876 27.4477 218.804 26.4277H220.928C220.964 26.9197 221.144 27.3037 221.468 27.5797C221.792 27.8557 222.23 27.9937 222.782 27.9937C223.346 27.9937 223.79 27.8737 224.114 27.6337C224.45 27.3817 224.618 27.0517 224.618 26.6437C224.618 26.2357 224.42 25.9177 224.024 25.6897C223.628 25.4617 223.142 25.2937 222.566 25.1857C222.002 25.0657 221.432 24.9337 220.856 24.7897C220.292 24.6337 219.812 24.3577 219.416 23.9617C219.02 23.5657 218.822 23.0377 218.822 22.3777Z" fill="white"/>
<path d="M65.1417 5.88323C65.3284 5.61298 65.636 5.45166 65.9645 5.45166H68.0935C68.8998 5.45166 69.3745 6.35678 68.9163 7.02009L67.2581 9.42009C67.0714 9.69034 66.7638 9.85166 66.4353 9.85166H64.3063C63.5 9.85166 63.0253 8.94654 63.4835 8.28323L65.1417 5.88323Z" fill="#21FFD7"/>
<path opacity="0.8" d="M57.5419 5.88323C57.7286 5.61298 58.0361 5.45166 58.3646 5.45166H60.4937C61.2999 5.45166 61.7747 6.35678 61.3164 7.02009L59.6582 9.42009C59.4715 9.69034 59.164 9.85166 58.8355 9.85166H56.7064C55.9002 9.85166 55.4254 8.94654 55.8837 8.28323L57.5419 5.88323Z" fill="#21FFD7"/>
<path opacity="0.6" d="M49.9418 5.88323C50.1285 5.61298 50.436 5.45166 50.7645 5.45166H52.8936C53.6998 5.45166 54.1746 6.35678 53.7163 7.02009L52.0581 9.42009C51.8714 9.69034 51.5639 9.85166 51.2354 9.85166H49.1063C48.3001 9.85166 47.8253 8.94654 48.2836 8.28323L49.9418 5.88323Z" fill="#21FFD7"/>
<path opacity="0.4" d="M42.3419 5.88323C42.5286 5.61298 42.8362 5.45166 43.1647 5.45166H45.2937C46.1 5.45166 46.5747 6.35678 46.1165 7.02009L44.4583 9.42009C44.2716 9.69034 43.964 9.85166 43.6355 9.85166H41.5065C40.7002 9.85166 40.2255 8.94654 40.6837 8.28323L42.3419 5.88323Z" fill="#21FFD7"/>
<path opacity="0.2" d="M34.7418 5.88323C34.9285 5.61298 35.2361 5.45166 35.5646 5.45166H37.6936C38.4999 5.45166 38.9746 6.35678 38.5164 7.02009L36.8582 9.42009C36.6715 9.69034 36.3639 9.85166 36.0354 9.85166H33.9064C33.1001 9.85166 32.6254 8.94654 33.0836 8.28323L34.7418 5.88323Z" fill="#21FFD7"/>
<path d="M147.858 37.3412C147.672 37.071 147.364 36.9097 147.036 36.9097H144.906C144.1 36.9097 143.625 37.8148 144.084 38.4781L145.742 40.8781C145.929 41.1484 146.236 41.3097 146.565 41.3097H148.694C149.5 41.3097 149.975 40.4045 149.516 39.7412L147.858 37.3412Z" fill="#21FFD7"/>
<path opacity="0.8" d="M155.458 37.3412C155.271 37.071 154.964 36.9097 154.635 36.9097H152.506C151.7 36.9097 151.225 37.8148 151.684 38.4781L153.342 40.8781C153.528 41.1484 153.836 41.3097 154.165 41.3097H156.294C157.1 41.3097 157.575 40.4045 157.116 39.7412L155.458 37.3412Z" fill="#21FFD7"/>
<path opacity="0.6" d="M163.058 37.3412C162.872 37.071 162.564 36.9097 162.235 36.9097H160.106C159.3 36.9097 158.825 37.8148 159.284 38.4781L160.942 40.8781C161.129 41.1484 161.436 41.3097 161.765 41.3097H163.894C164.7 41.3097 165.175 40.4045 164.716 39.7412L163.058 37.3412Z" fill="#21FFD7"/>
<path opacity="0.4" d="M170.658 37.3412C170.471 37.071 170.164 36.9097 169.835 36.9097H167.706C166.9 36.9097 166.425 37.8148 166.884 38.4781L168.542 40.8781C168.728 41.1484 169.036 41.3097 169.364 41.3097H171.494C172.3 41.3097 172.775 40.4045 172.316 39.7412L170.658 37.3412Z" fill="#21FFD7"/>
<path opacity="0.2" d="M178.258 37.3412C178.071 37.071 177.764 36.9097 177.435 36.9097H175.306C174.5 36.9097 174.025 37.8148 174.484 38.4781L176.142 40.8781C176.329 41.1484 176.636 41.3097 176.965 41.3097H179.094C179.9 41.3097 180.375 40.4045 179.916 39.7412L178.258 37.3412Z" fill="#21FFD7"/>
</svg>
